<svg width="159" height="149" viewBox="0 0 159 149" fill="none" xmlns="http://www.w3.org/2000/svg">
<path d="M91.7043 94.3711H81.0332V105.042H91.7043V94.3711Z" fill="#1B8140"/>
<path d="M108.866 46.0254H109.073L108.893 43.3576V40.9166H108.726V40.6765H103.644C102.111 40.6776 100.598 41.0313 99.2225 41.7103V18.7274C99.2189 16.7173 98.4189 14.7906 96.9975 13.3692C95.5762 11.9479 93.6494 11.1478 91.6393 11.1443C90.9621 11.1506 90.289 11.2494 89.6385 11.4377V10.5841C89.6435 8.78053 89.0038 7.03457 87.8348 5.66114C86.6659 4.28771 85.0446 3.37722 83.2634 3.09391C81.4823 2.8106 79.6585 3.17312 78.1211 4.11608C76.5837 5.05903 75.4339 6.52035 74.8791 8.23643C74.1115 7.96694 73.3049 7.825 72.4914 7.81625C70.4808 7.81802 68.553 8.61752 67.1313 10.0393C65.7095 11.461 64.91 13.3888 64.9083 15.3994V18.3139C64.2578 18.1255 63.5846 18.0267 62.9074 18.0205C60.8968 18.0222 58.969 18.8217 57.5473 20.2435C56.1256 21.6652 55.3261 23.593 55.3243 25.6036V71.0357C55.3171 73.1925 55.7648 75.3266 56.6382 77.2986C57.5116 79.2707 58.7911 81.0364 60.3931 82.4805V89.3166H66.1621V79.686L65.0283 78.8256C63.8121 77.9272 62.8246 76.755 62.1456 75.404C61.4666 74.053 61.1153 72.5611 61.12 71.0491V25.6169C61.12 25.1358 61.3112 24.6744 61.6514 24.3342C61.9916 23.994 62.453 23.8029 62.9341 23.8029C63.4152 23.8029 63.8767 23.994 64.2169 24.3342C64.5571 24.6744 64.7482 25.1358 64.7482 25.6169V42.6306H70.6773V15.4127C70.6623 15.1648 70.6982 14.9164 70.7827 14.6829C70.8672 14.4493 70.9987 14.2355 71.1689 14.0547C71.3391 13.8738 71.5446 13.7297 71.7726 13.6312C72.0006 13.5326 72.2464 13.4818 72.4947 13.4818C72.7431 13.4818 72.9889 13.5326 73.2169 13.6312C73.4449 13.7297 73.6503 13.8738 73.8206 14.0547C73.9908 14.2355 74.1222 14.4493 74.2068 14.6829C74.2913 14.9164 74.3272 15.1648 74.3122 15.4127V42.6306H80.2413V10.5841C80.2413 10.1029 80.4324 9.64152 80.7726 9.30131C81.1128 8.9611 81.5742 8.76998 82.0554 8.76998C82.5365 8.76998 82.9979 8.9611 83.3381 9.30131C83.6783 9.64152 83.8694 10.1029 83.8694 10.5841V42.5973H89.7986V18.7274C89.8266 18.2645 90.0303 17.8296 90.3681 17.5117C90.7058 17.1938 91.1522 17.0168 91.616 17.0168C92.0798 17.0168 92.5261 17.1938 92.8639 17.5117C93.2016 17.8296 93.4053 18.2645 93.4334 18.7274V42.6306V62.6389L99.2025 62.7523L99.3025 60.3246V50.6606C99.3047 49.6138 99.6898 48.6039 100.385 47.8213C101.08 47.0388 102.038 46.5376 103.077 46.4122V52.3213L102.884 54.5823L103.077 54.6356V63.3059L90.4788 78.2854C89.0796 79.1766 87.5825 79.9039 86.017 80.4529L83.8161 80.9865V89.3033H89.5851V85.3016C91.0862 84.6211 92.5391 83.839 93.9336 82.9607L94.3071 82.7272L108.846 65.4467L108.866 46.0254Z" fill="#A6102B" stroke="#F7F7F1" stroke-width="4.6686" stroke-miterlimit="10"/>
<path d="M97.0942 89.3301H60.8592V130.934C60.8664 133.091 60.4186 135.225 59.5452 137.197C58.6718 139.169 57.3924 140.935 55.7904 142.379V145.793H53.8496V145.973H97.0942V89.3301Z" stroke="#A6102B" stroke-width="1.33388" stroke-miterlimit="10"/>
<path d="M3.16674 110.299L3.08003 110.332L3.16674 112.486V125.298L17.7061 142.639L18.0862 142.872C19.4799 143.75 20.9304 144.534 22.428 145.22V145.827H24.0087C24.2221 145.893 24.4289 145.953 24.6289 146L24.6756 145.827H28.1971V140.931L25.9962 140.398C24.4329 139.849 22.938 139.121 21.541 138.23L8.93579 123.217V114.44L9.1959 114.354L8.93579 112.159V106.304C9.97689 106.426 10.9369 106.926 11.6339 107.709C12.3309 108.492 12.7164 109.504 12.7174 110.552V120.356L12.8174 122.664L18.5798 122.55V102.542V78.6122C18.5798 78.131 18.7709 77.6696 19.1111 77.3294C19.4513 76.9892 19.9127 76.7981 20.3939 76.7981C20.875 76.7981 21.3364 76.9892 21.6766 77.3294C22.0168 77.6696 22.2079 78.131 22.2079 78.6122V102.515H28.1371V70.5021C28.1651 70.0392 28.3688 69.6044 28.7066 69.2865C29.0443 68.9686 29.4907 68.7915 29.9545 68.7915C30.4183 68.7915 30.8646 68.9686 31.2024 69.2865C31.5401 69.6044 31.7438 70.0392 31.7719 70.5021V102.515H37.701V75.2775C37.701 74.7963 37.8921 74.3349 38.2323 73.9947C38.5726 73.6545 39.034 73.4634 39.5151 73.4634C39.9962 73.4634 40.4576 73.6545 40.7978 73.9947C41.1381 74.3349 41.3292 74.7963 41.3292 75.2775V102.495H47.265V85.5017C47.265 85.0206 47.4561 84.5591 47.7963 84.2189C48.1365 83.8787 48.5979 83.6876 49.079 83.6876C49.5602 83.6876 50.0216 83.8787 50.3618 84.2189C50.702 84.5591 50.8931 85.0206 50.8931 85.5017V130.934C50.895 132.909 50.2897 134.837 49.1591 136.456C48.5695 137.316 47.8468 138.077 47.0182 138.71L45.8644 139.577V145.793H51.6334V142.379C53.2354 140.934 54.5149 139.169 55.3883 137.197C56.2617 135.225 56.7094 133.091 56.7022 130.934V85.5017C56.6934 83.498 55.8926 81.5791 54.4745 80.1635C53.0564 78.7479 51.1361 77.9505 49.1324 77.9452C48.4552 77.9516 47.7821 78.0503 47.1316 78.2387V75.2775C47.1298 73.2668 46.3303 71.339 44.9086 69.9173C43.4868 68.4956 41.5591 67.6961 39.5484 67.6943C38.735 67.7031 37.9284 67.845 37.1608 68.1145C36.6101 66.3949 35.4618 64.9293 33.9239 63.9831C32.3859 63.037 30.5601 62.6728 28.7768 62.9566C26.9936 63.2404 25.3709 64.1533 24.2027 65.5301C23.0344 66.9069 22.3978 68.6565 22.408 70.4621V71.3091C21.285 70.9829 20.101 70.9251 18.9516 71.1405C17.8021 71.3558 16.7194 71.8383 15.7906 72.549C14.8619 73.2596 14.1131 74.1786 13.6048 75.2318C13.0965 76.285 12.8427 77.4429 12.8641 78.6122V101.542C11.4881 100.858 9.97228 100.501 8.43558 100.501H3.30679V100.755H3.18007V102.789L3 105.957H3.16674V110.299Z" fill="#A6102B" stroke="#F7F7F1" stroke-width="4.6686" stroke-miterlimit="10"/>
<path d="M148.148 62.0387C147.471 62.0478 146.798 62.1487 146.147 62.3388V59.4176C146.145 57.407 145.346 55.4792 143.924 54.0575C142.502 52.6357 140.575 51.8362 138.564 51.8345C137.75 51.8461 136.944 51.9902 136.176 52.2613C135.615 50.5574 134.465 49.109 132.933 48.1752C131.401 47.2415 129.586 46.8834 127.814 47.1649C126.042 47.4465 124.428 48.3494 123.261 49.712C122.094 51.0746 121.45 52.8081 121.444 54.6023V55.4426C120.793 55.2547 120.12 55.156 119.443 55.1492C117.432 55.1509 115.504 55.9504 114.083 57.3722C112.661 58.7939 111.861 60.7217 111.86 62.7323V85.6551C110.483 84.9731 108.967 84.6192 107.431 84.6213H102.309V84.8948H102.182V86.8956L102.016 89.9902H102.182V94.352H102.096L102.182 96.5063V109.338L116.728 126.619L117.102 126.859C118.495 127.736 119.945 128.518 121.444 129.2V133.235H127.213V125.025L125.012 124.491C123.448 123.942 121.954 123.215 120.557 122.324L107.951 107.344V98.5671L108.212 98.4804L107.951 96.2862V90.4238C108.993 90.5462 109.953 91.0463 110.649 91.8294C111.346 92.6124 111.732 93.6239 111.733 94.6722V104.483L111.826 106.791L117.595 106.677V86.6689V62.739C117.595 62.2578 117.787 61.7964 118.127 61.4562C118.467 61.116 118.928 60.9249 119.409 60.9249C119.891 60.9249 120.352 61.116 120.692 61.4562C121.032 61.7964 121.224 62.2578 121.224 62.739V86.6155H127.159V54.6023C127.159 54.1211 127.35 53.6597 127.691 53.3195C128.031 52.9793 128.492 52.7882 128.973 52.7882C129.455 52.7882 129.916 52.9793 130.256 53.3195C130.596 53.6597 130.788 54.1211 130.788 54.6023V86.6155H136.717V59.4176C136.745 58.9546 136.948 58.5198 137.286 58.2019C137.624 57.884 138.07 57.707 138.534 57.707C138.998 57.707 139.444 57.884 139.782 58.2019C140.12 58.5198 140.323 58.9546 140.351 59.4176V86.6155H146.281V69.6285C146.281 69.1474 146.472 68.6859 146.812 68.3457C147.152 68.0055 147.614 67.8144 148.095 67.8144C148.576 67.8144 149.037 68.0055 149.377 68.3457C149.718 68.6859 149.909 69.1474 149.909 69.6285V115.061C149.912 116.572 149.56 118.064 148.881 119.414C148.202 120.765 147.215 121.938 146 122.837L144.84 123.704V133.341H150.609V126.505C152.211 125.061 153.49 123.296 154.364 121.323C155.237 119.351 155.685 117.217 155.678 115.061V69.6285C155.678 67.6259 154.886 65.7044 153.476 64.2828C152.066 62.8611 150.151 62.0545 148.148 62.0387Z" fill="#A6102B" stroke="#F7F7F1" stroke-width="4.6686" stroke-miterlimit="10"/>
<path d="M150.786 134.035H146.965H129.284H126.016H123.515H111.523V145.973H155.262V134.035H152.727H150.786Z" stroke="#A6102B" stroke-width="1.33388" stroke-miterlimit="10"/>
</svg>
