<svg width="16" height="16" viewBox="0 0 16 16" fill="none" xmlns="http://www.w3.org/2000/svg">
<path d="M15.8548 12.8541L11.0008 8.00008L15.8548 3.14608C15.9478 3.05193 16 2.92492 16 2.79258C16 2.66023 15.9478 2.53322 15.8548 2.43908L13.5618 0.146076C13.5154 0.0995436 13.4604 0.0626219 13.3997 0.0374289C13.339 0.012236 13.274 -0.000732422 13.2083 -0.000732422C13.1426 -0.000732422 13.0776 0.012236 13.0169 0.0374289C12.9563 0.0626219 12.9012 0.0995436 12.8548 0.146076L8.00081 5.00008L3.14681 0.146076C3.05304 0.0523407 2.92589 -0.000317003 2.79331 -0.000317003C2.66073 -0.000317003 2.53357 0.0523407 2.43981 0.146076L0.146809 2.43908C0.100276 2.48544 0.0633543 2.54053 0.0381614 2.60119C0.0129684 2.66185 0 2.72689 0 2.79258C0 2.85826 0.0129684 2.9233 0.0381614 2.98396C0.0633543 3.04462 0.100276 3.09972 0.146809 3.14608L5.00081 8.00008L0.146809 12.8541C0.0530731 12.9478 0.000415419 13.075 0.000415419 13.2076C0.000415419 13.3402 0.0530731 13.4673 0.146809 13.5611L2.43981 15.8541C2.48617 15.9006 2.54126 15.9375 2.60192 15.9627C2.66258 15.9879 2.72762 16.0009 2.79331 16.0009C2.85899 16.0009 2.92403 15.9879 2.9847 15.9627C3.04536 15.9375 3.10045 15.9006 3.14681 15.8541L8.00081 11.0001L12.8548 15.8541C12.9486 15.9478 13.0757 16.0005 13.2083 16.0005C13.3409 16.0005 13.468 15.9478 13.5618 15.8541L15.8548 13.5611C15.9013 13.5147 15.9383 13.4596 15.9635 13.399C15.9886 13.3383 16.0016 13.2733 16.0016 13.2076C16.0016 13.1419 15.9886 13.0769 15.9635 13.0162C15.9383 12.9555 15.9013 12.9004 15.8548 12.8541Z" fill="#D8D8D8"/>
</svg>
